<svg xmlns="http://www.w3.org/2000/svg" width="34" height="73" fill="none" viewBox="0 0 34 73"><mask id="mask0" width="34" height="72" x="0" y="0" mask-type="alpha" maskUnits="userSpaceOnUse"><path fill="url(#paint0_radial)" fill-opacity=".95" d="M0 13.9767C0 12.7308 0.580524 11.5561 1.5702 10.7993L14.5702 0.858083C16.0044 -0.238676 17.9956 -0.238675 19.4298 0.858083L32.4298 10.7993C33.4195 11.5561 34 12.7308 34 13.9767V58.0233C34 59.2692 33.4195 60.4439 32.4298 61.2007L19.4298 71.1419C17.9956 72.2387 16.0044 72.2387 14.5702 71.1419L1.5702 61.2007C0.580524 60.4439 0 59.2692 0 58.0233V13.9767Z"/></mask><g mask="url(#mask0)"><g filter="url(#filter0_ii)"><path fill="url(#paint1_radial)" d="M0 13.9767C0 12.7308 0.580524 11.5561 1.5702 10.7993L14.5702 0.858083C16.0044 -0.238676 17.9956 -0.238675 19.4298 0.858083L32.4298 10.7993C33.4195 11.5561 34 12.7308 34 13.9767V58.0233C34 59.2692 33.4195 60.4439 32.4298 61.2007L19.4298 71.1419C17.9956 72.2387 16.0044 72.2387 14.5702 71.1419L1.5702 61.2007C0.580524 60.4439 0 59.2692 0 58.0233V13.9767Z"/></g><g filter="url(#filter1_dif)"><path fill="url(#paint2_radial)" d="M34 59.0117V12.9883C34 12.3654 33.7097 11.778 33.2149 11.3996L17 -1V73L33.2149 60.6004C33.7097 60.222 34 59.6346 34 59.0117Z"/></g><g filter="url(#filter2_iif)"><path fill="url(#paint3_radial)" fill-opacity=".8" d="M17 -1L0 12L14.5702 23.1419C16.0044 24.2387 17.9956 24.2387 19.4298 23.1419L34 12L17 -1Z"/></g></g><defs><filter id="filter0_ii" width="37" height="73.929" x="-1" y=".036" color-interpolation-filters="sRGB" filterUnits="userSpaceOnUse"><feFlood flood-opacity="0" result="BackgroundImageFix"/><feBlend in="SourceGraphic" in2="BackgroundImageFix" mode="normal" result="shape"/><feColorMatrix in="SourceAlpha" result="hardAlpha" type="matrix" values="0 0 0 0 0 0 0 0 0 0 0 0 0 0 0 0 0 0 127 0"/><feOffset dx="2" dy="2"/><feGaussianBlur stdDeviation="5"/><feComposite in2="hardAlpha" k2="-1" k3="1" operator="arithmetic"/><feColorMatrix type="matrix" values="0 0 0 0 0.95 0 0 0 0 0.623 0 0 0 0 0.05 0 0 0 0.9 0"/><feBlend in2="shape" mode="normal" result="effect1_innerShadow"/><feColorMatrix in="SourceAlpha" result="hardAlpha" type="matrix" values="0 0 0 0 0 0 0 0 0 0 0 0 0 0 0 0 0 0 127 0"/><feOffset dx="-1" dy="1"/><feGaussianBlur stdDeviation=".5"/><feComposite in2="hardAlpha" k2="-1" k3="1" operator="arithmetic"/><feColorMatrix type="matrix" values="0 0 0 0 1 0 0 0 0 1 0 0 0 0 1 0 0 0 0.2 0"/><feBlend in2="effect1_innerShadow" mode="normal" result="effect2_innerShadow"/></filter><filter id="filter1_dif" width="25" height="86" x="13" y="-5" color-interpolation-filters="sRGB" filterUnits="userSpaceOnUse"><feFlood flood-opacity="0" result="BackgroundImageFix"/><feColorMatrix in="SourceAlpha" type="matrix" values="0 0 0 0 0 0 0 0 0 0 0 0 0 0 0 0 0 0 127 0"/><feOffset dy="4"/><feGaussianBlur stdDeviation="2"/><feColorMatrix type="matrix" values="0 0 0 0 0 0 0 0 0 0 0 0 0 0 0 0 0 0 1 0"/><feBlend in2="BackgroundImageFix" mode="normal" result="effect1_dropShadow"/><feBlend in="SourceGraphic" in2="effect1_dropShadow" mode="normal" result="shape"/><feColorMatrix in="SourceAlpha" result="hardAlpha" type="matrix" values="0 0 0 0 0 0 0 0 0 0 0 0 0 0 0 0 0 0 127 0"/><feOffset dx="-1" dy="-1"/><feGaussianBlur stdDeviation=".5"/><feComposite in2="hardAlpha" k2="-1" k3="1" operator="arithmetic"/><feColorMatrix type="matrix" values="0 0 0 0 0.95 0 0 0 0 0.623 0 0 0 0 0.05 0 0 0 0.9 0"/><feBlend in2="shape" mode="normal" result="effect2_innerShadow"/><feGaussianBlur result="effect3_foregroundBlur" stdDeviation="2"/></filter><filter id="filter2_iif" width="37" height="27.965" x="-1" y="-2" color-interpolation-filters="sRGB" filterUnits="userSpaceOnUse"><feFlood flood-opacity="0" result="BackgroundImageFix"/><feBlend in="SourceGraphic" in2="BackgroundImageFix" mode="normal" result="shape"/><feColorMatrix in="SourceAlpha" result="hardAlpha" type="matrix" values="0 0 0 0 0 0 0 0 0 0 0 0 0 0 0 0 0 0 127 0"/><feOffset dx="2" dy="2"/><feGaussianBlur stdDeviation="15.5"/><feComposite in2="hardAlpha" k2="-1" k3="1" operator="arithmetic"/><feColorMatrix type="matrix" values="0 0 0 0 0.95 0 0 0 0 0.623 0 0 0 0 0.05 0 0 0 0.9 0"/><feBlend in2="shape" mode="normal" result="effect1_innerShadow"/><feColorMatrix in="SourceAlpha" result="hardAlpha" type="matrix" values="0 0 0 0 0 0 0 0 0 0 0 0 0 0 0 0 0 0 127 0"/><feOffset dx="-2"/><feGaussianBlur stdDeviation=".5"/><feComposite in2="hardAlpha" k2="-1" k3="1" operator="arithmetic"/><feColorMatrix type="matrix" values="0 0 0 0 1 0 0 0 0 1 0 0 0 0 1 0 0 0 0.2 0"/><feBlend in2="effect1_innerShadow" mode="normal" result="effect2_innerShadow"/><feGaussianBlur result="effect3_foregroundBlur" stdDeviation=".5"/></filter><radialGradient id="paint0_radial" cx="0" cy="0" r="1" gradientTransform="translate(28.3313 64.8204) rotate(-102.092) scale(67.4131 846.864)" gradientUnits="userSpaceOnUse"><stop stop-color="#201502"/><stop offset="1" stop-color="#C7830A"/></radialGradient><radialGradient id="paint1_radial" cx="0" cy="0" r="1" gradientTransform="translate(28.3313 64.8204) rotate(-102.092) scale(67.4131 846.864)" gradientUnits="userSpaceOnUse"><stop stop-color="#201502"/><stop offset="1" stop-color="#C7830A"/></radialGradient><radialGradient id="paint2_radial" cx="0" cy="0" r="1" gradientTransform="translate(31.9667 61.3557) rotate(-100.534) scale(54.7003 683.353)" gradientUnits="userSpaceOnUse"><stop stop-color="#201502"/><stop offset="1" stop-color="#C7830A"/></radialGradient><radialGradient id="paint3_radial" cx="0" cy="0" r="1" gradientTransform="translate(19.1537 23.663) rotate(-102.078) scale(61.741 1819.91)" gradientUnits="userSpaceOnUse"><stop stop-color="#201502"/><stop offset="1" stop-color="#C7830A"/></radialGradient></defs></svg>