<svg xmlns="http://www.w3.org/2000/svg" xmlns:xlink="http://www.w3.org/1999/xlink" width="34" height="57" fill="none" viewBox="0 0 34 57"><filter id="a" width="35" height="56.929" x="-1" y=".036" color-interpolation-filters="sRGB" filterUnits="userSpaceOnUse"><feFlood flood-opacity="0" result="BackgroundImageFix"/><feBlend in="SourceGraphic" in2="BackgroundImageFix" mode="normal" result="shape"/><feColorMatrix in="SourceAlpha" result="hardAlpha" type="matrix" values="0 0 0 0 0 0 0 0 0 0 0 0 0 0 0 0 0 0 127 0"/><feOffset/><feGaussianBlur stdDeviation="10"/><feComposite in2="hardAlpha" k2="-1" k3="1" operator="arithmetic"/><feColorMatrix type="matrix" values="0 0 0 0 1 0 0 0 0 0.69 0 0 0 0 0.225 0 0 0 0.4 0"/><feBlend in2="shape" mode="normal" result="effect1_innerShadow"/><feColorMatrix in="SourceAlpha" result="hardAlpha" type="matrix" values="0 0 0 0 0 0 0 0 0 0 0 0 0 0 0 0 0 0 127 0"/><feOffset dx="-1" dy="1"/><feGaussianBlur stdDeviation=".5"/><feComposite in2="hardAlpha" k2="-1" k3="1" operator="arithmetic"/><feColorMatrix type="matrix" values="0 0 0 0 1 0 0 0 0 1 0 0 0 0 1 0 0 0 0.5 0"/><feBlend in2="effect1_innerShadow" mode="normal" result="effect2_innerShadow"/></filter><filter id="b" width="21" height="57.913" x="15" y="1.087" color-interpolation-filters="sRGB" filterUnits="userSpaceOnUse"><feFlood flood-opacity="0" result="BackgroundImageFix"/><feBlend in="SourceGraphic" in2="BackgroundImageFix" mode="normal" result="shape"/><feColorMatrix in="SourceAlpha" result="hardAlpha" type="matrix" values="0 0 0 0 0 0 0 0 0 0 0 0 0 0 0 0 0 0 127 0"/><feOffset/><feGaussianBlur stdDeviation="10"/><feComposite in2="hardAlpha" k2="-1" k3="1" operator="arithmetic"/><feColorMatrix type="matrix" values="0 0 0 0 1 0 0 0 0 0.69 0 0 0 0 0.225 0 0 0 0.4 0"/><feBlend in2="shape" mode="normal" result="effect1_innerShadow"/><feColorMatrix in="SourceAlpha" result="hardAlpha" type="matrix" values="0 0 0 0 0 0 0 0 0 0 0 0 0 0 0 0 0 0 127 0"/><feOffset dx="-1" dy="1"/><feGaussianBlur stdDeviation=".5"/><feComposite in2="hardAlpha" k2="-1" k3="1" operator="arithmetic"/><feColorMatrix type="matrix" values="0 0 0 0 1 0 0 0 0 1 0 0 0 0 1 0 0 0 0.5 0"/><feBlend in2="effect1_innerShadow" mode="normal" result="effect2_innerShadow"/><feGaussianBlur result="effect3_foregroundBlur" stdDeviation="1"/></filter><filter id="c" width="37" height="26.929" x="-1" y="-.964" color-interpolation-filters="sRGB" filterUnits="userSpaceOnUse"><feFlood flood-opacity="0" result="BackgroundImageFix"/><feBlend in="SourceGraphic" in2="BackgroundImageFix" mode="normal" result="shape"/><feColorMatrix in="SourceAlpha" result="hardAlpha" type="matrix" values="0 0 0 0 0 0 0 0 0 0 0 0 0 0 0 0 0 0 127 0"/><feOffset dx="2" dy="2"/><feGaussianBlur stdDeviation="8"/><feComposite in2="hardAlpha" k2="-1" k3="1" operator="arithmetic"/><feColorMatrix type="matrix" values="0 0 0 0 1 0 0 0 0 0.72 0 0 0 0 3.33786e-08 0 0 0 0.2 0"/><feBlend in2="shape" mode="normal" result="effect1_innerShadow"/><feColorMatrix in="SourceAlpha" result="hardAlpha" type="matrix" values="0 0 0 0 0 0 0 0 0 0 0 0 0 0 0 0 0 0 127 0"/><feOffset dx="-2"/><feGaussianBlur stdDeviation=".5"/><feComposite in2="hardAlpha" k2="-1" k3="1" operator="arithmetic"/><feColorMatrix type="matrix" values="0 0 0 0 1 0 0 0 0 1 0 0 0 0 1 0 0 0 0.9 0"/><feBlend in2="effect1_innerShadow" mode="normal" result="effect2_innerShadow"/><feGaussianBlur result="effect3_foregroundBlur" stdDeviation=".5"/></filter><radialGradient id="d" cx="0" cy="0" r="1" gradientTransform="matrix(15.44673845 39.50002984 -23.15515779 9.05497205 1.5 17.5)" gradientUnits="userSpaceOnUse"><stop offset="0" stop-color="#fffffe"/><stop offset="1" stop-color="#fff6e4"/></radialGradient><radialGradient id="e" cx="0" cy="0" r="1" gradientTransform="matrix(0 70.5 -20.6638 0 25 6)" gradientUnits="userSpaceOnUse"><stop offset="0" stop-color="#ffeab4"/><stop offset="1" stop-color="#ffe7b4"/></radialGradient><radialGradient id="f" cx="0" cy="0" r="1" gradientTransform="matrix(-40.99971816 -8.4503428 184.2530617 -893.96652639 30.4998 17.9502)" gradientUnits="userSpaceOnUse"><stop offset=".036" stop-color="#fffaed"/><stop offset="1" stop-color="#ffedc9"/></radialGradient><mask id="g" width="34" height="56" x="0" y="0" maskUnits="userSpaceOnUse"><path fill="#ff8080" d="m0 13.9767c0-1.2459.580524-2.4206 1.5702-3.1774l13-9.941217c1.4342-1.096759 3.4254-1.096758 4.8596 0l13 9.941217c.9897.7568 1.5702 1.9315 1.5702 3.1774v28.0466c0 1.2459-.5805 2.4206-1.5702 3.1774l-13 9.9412c-1.4342 1.0968-3.4254 1.0968-4.8596 0l-13-9.9412c-.989676-.7568-1.5702-1.9315-1.5702-3.1774z" opacity=".92"/></mask><g mask="url(#g)"><g filter="url(#a)"><path fill="url(#d)" d="m0 13.9767c0-1.2459.580524-2.4206 1.5702-3.1774l13-9.941217c1.4342-1.096759 3.4254-1.096758 4.8596 0l13 9.941217c.9897.7568 1.5702 1.9315 1.5702 3.1774v28.0466c0 1.2459-.5805 2.4206-1.5702 3.1774l-13 9.9412c-1.4342 1.0968-3.4254 1.0968-4.8596 0l-13-9.9412c-.989676-.7568-1.5702-1.9315-1.5702-3.1774z"/></g><g filter="url(#b)"><path fill="url(#e)" fill-opacity=".8" d="m34 42.0233v-28.0466c0-1.2459-.5805-2.4206-1.5702-3.1774l-9-6.88239c-2.632-2.01275-6.4298-.136-6.4298 3.17743v49.90566l15.4298-11.7993c.9897-.7568 1.5702-1.9315 1.5702-3.1774z"/></g><g filter="url(#c)"><path fill="url(#f)" fill-opacity=".8" d="m14.5702.858083-14.5702 11.141917 14.5702 11.1419c1.4342 1.0968 3.4254 1.0968 4.8596 0l14.5702-11.1419-14.5702-11.141917c-1.4342-1.096758-3.4254-1.096759-4.8596 0z"/></g></g></svg>