<svg xmlns="http://www.w3.org/2000/svg" width="34" height="57" fill="none" viewBox="0 0 34 57"><mask id="mask0" width="34" height="56" x="0" y="0" mask-type="alpha" maskUnits="userSpaceOnUse"><path fill="url(#paint0_radial)" fill-opacity=".95" d="M0 13.9767C0 12.7308 0.580524 11.5561 1.5702 10.7993L14.5702 0.858083C16.0044 -0.238676 17.9956 -0.238675 19.4298 0.858083L32.4298 10.7993C33.4195 11.5561 34 12.7308 34 13.9767V42.0233C34 43.2692 33.4195 44.4439 32.4298 45.2007L19.4298 55.1419C17.9956 56.2387 16.0044 56.2387 14.5702 55.1419L1.5702 45.2007C0.580524 44.4439 0 43.2692 0 42.0233V13.9767Z"/></mask><g mask="url(#mask0)"><g filter="url(#filter0_ii)"><path fill="url(#paint1_radial)" fill-opacity=".9" d="M0 13.9767C0 12.7308 0.580524 11.5561 1.5702 10.7993L14.5702 0.858083C16.0044 -0.238676 17.9956 -0.238675 19.4298 0.858083L32.4298 10.7993C33.4195 11.5561 34 12.7308 34 13.9767V42.0233C34 43.2692 33.4195 44.4439 32.4298 45.2007L19.4298 55.1419C17.9956 56.2387 16.0044 56.2387 14.5702 55.1419L1.5702 45.2007C0.580524 44.4439 0 43.2692 0 42.0233V13.9767Z"/></g><g filter="url(#filter1_dif)"><path fill="url(#paint2_radial)" d="M34 43.0117V12.9883C34 12.3654 33.7097 11.778 33.2149 11.3996L17 -1V57L33.2149 44.6004C33.7097 44.222 34 43.6346 34 43.0117Z"/></g><g filter="url(#filter2_iif)"><path fill="url(#paint3_radial)" fill-opacity=".8" d="M17 -1L0 12L14.5702 23.1419C16.0044 24.2387 17.9956 24.2387 19.4298 23.1419L34 12L17 -1Z"/></g></g><defs><filter id="filter0_ii" width="37" height="57.929" x="-1" y=".036" color-interpolation-filters="sRGB" filterUnits="userSpaceOnUse"><feFlood flood-opacity="0" result="BackgroundImageFix"/><feBlend in="SourceGraphic" in2="BackgroundImageFix" mode="normal" result="shape"/><feColorMatrix in="SourceAlpha" result="hardAlpha" type="matrix" values="0 0 0 0 0 0 0 0 0 0 0 0 0 0 0 0 0 0 127 0"/><feOffset dx="2" dy="2"/><feGaussianBlur stdDeviation="5"/><feComposite in2="hardAlpha" k2="-1" k3="1" operator="arithmetic"/><feColorMatrix type="matrix" values="0 0 0 0 0.95 0 0 0 0 0.623 0 0 0 0 0.05 0 0 0 0.2 0"/><feBlend in2="shape" mode="normal" result="effect1_innerShadow"/><feColorMatrix in="SourceAlpha" result="hardAlpha" type="matrix" values="0 0 0 0 0 0 0 0 0 0 0 0 0 0 0 0 0 0 127 0"/><feOffset dx="-1" dy="1"/><feGaussianBlur stdDeviation=".5"/><feComposite in2="hardAlpha" k2="-1" k3="1" operator="arithmetic"/><feColorMatrix type="matrix" values="0 0 0 0 1 0 0 0 0 1 0 0 0 0 1 0 0 0 0.2 0"/><feBlend in2="effect1_innerShadow" mode="normal" result="effect2_innerShadow"/></filter><filter id="filter1_dif" width="27" height="71" x="12" y="-6" color-interpolation-filters="sRGB" filterUnits="userSpaceOnUse"><feFlood flood-opacity="0" result="BackgroundImageFix"/><feColorMatrix in="SourceAlpha" type="matrix" values="0 0 0 0 0 0 0 0 0 0 0 0 0 0 0 0 0 0 127 0"/><feOffset dy="4"/><feGaussianBlur stdDeviation="2"/><feColorMatrix type="matrix" values="0 0 0 0 0 0 0 0 0 0 0 0 0 0 0 0 0 0 1 0"/><feBlend in2="BackgroundImageFix" mode="normal" result="effect1_dropShadow"/><feBlend in="SourceGraphic" in2="effect1_dropShadow" mode="normal" result="shape"/><feColorMatrix in="SourceAlpha" result="hardAlpha" type="matrix" values="0 0 0 0 0 0 0 0 0 0 0 0 0 0 0 0 0 0 127 0"/><feOffset dx="-2" dy="-1"/><feGaussianBlur stdDeviation=".5"/><feComposite in2="hardAlpha" k2="-1" k3="1" operator="arithmetic"/><feColorMatrix type="matrix" values="0 0 0 0 1 0 0 0 0 1 0 0 0 0 1 0 0 0 0.2 0"/><feBlend in2="shape" mode="normal" result="effect2_innerShadow"/><feGaussianBlur result="effect3_foregroundBlur" stdDeviation="2.5"/></filter><filter id="filter2_iif" width="37" height="27.965" x="-1" y="-2" color-interpolation-filters="sRGB" filterUnits="userSpaceOnUse"><feFlood flood-opacity="0" result="BackgroundImageFix"/><feBlend in="SourceGraphic" in2="BackgroundImageFix" mode="normal" result="shape"/><feColorMatrix in="SourceAlpha" result="hardAlpha" type="matrix" values="0 0 0 0 0 0 0 0 0 0 0 0 0 0 0 0 0 0 127 0"/><feOffset dx="2" dy="2"/><feGaussianBlur stdDeviation="8"/><feComposite in2="hardAlpha" k2="-1" k3="1" operator="arithmetic"/><feColorMatrix type="matrix" values="0 0 0 0 0.95 0 0 0 0 0.623 0 0 0 0 0.05 0 0 0 0.2 0"/><feBlend in2="shape" mode="normal" result="effect1_innerShadow"/><feColorMatrix in="SourceAlpha" result="hardAlpha" type="matrix" values="0 0 0 0 0 0 0 0 0 0 0 0 0 0 0 0 0 0 127 0"/><feOffset dx="-2"/><feGaussianBlur stdDeviation=".5"/><feComposite in2="hardAlpha" k2="-1" k3="1" operator="arithmetic"/><feColorMatrix type="matrix" values="0 0 0 0 0.922292 0 0 0 0 0.60255 0 0 0 0 0.0485417 0 0 0 0.5 0"/><feBlend in2="effect1_innerShadow" mode="normal" result="effect2_innerShadow"/><feGaussianBlur result="effect3_foregroundBlur" stdDeviation=".5"/></filter><radialGradient id="paint0_radial" cx="0" cy="0" r="1" gradientTransform="translate(25.3053 42.989) rotate(-109.233) scale(70.4297 2348.99)" gradientUnits="userSpaceOnUse"><stop/><stop offset="0" stop-color="#211602"/><stop offset="1" stop-color="#AC7109"/></radialGradient><radialGradient id="paint1_radial" cx="0" cy="0" r="1" gradientTransform="translate(25.3053 42.989) rotate(-109.233) scale(70.4297 2348.99)" gradientUnits="userSpaceOnUse"><stop/><stop offset="0" stop-color="#211602"/><stop offset="1" stop-color="#AC7109"/></radialGradient><radialGradient id="paint2_radial" cx="0" cy="0" r="1" gradientTransform="translate(31.9667 47.8734) rotate(-106.704) scale(52.0707 812.895)" gradientUnits="userSpaceOnUse"><stop offset=".063" stop-color="#201502"/><stop offset="1" stop-color="#C7830A"/></radialGradient><radialGradient id="paint3_radial" cx="0" cy="0" r="1" gradientTransform="translate(30.4998 17.9502) rotate(-157.423) scale(77.4885 1689.58)" gradientUnits="userSpaceOnUse"><stop/><stop offset="0" stop-color="#211602"/><stop offset="1" stop-color="#AC7109"/></radialGradient></defs></svg>