<svg xmlns="http://www.w3.org/2000/svg" width="34" height="41" fill="none" viewBox="0 0 34 41"><mask id="mask0" width="34" height="40" x="0" y="0" mask-type="alpha" maskUnits="userSpaceOnUse"><path fill="url(#paint0_radial)" fill-opacity=".95" d="M0 13.9767C0 12.7308 0.580524 11.5561 1.5702 10.7993L14.5702 0.858083C16.0044 -0.238676 17.9956 -0.238675 19.4298 0.858083L32.4298 10.7993C33.4195 11.5561 34 12.7308 34 13.9767V26.0233C34 27.2692 33.4195 28.4439 32.4298 29.2007L19.4298 39.1419C17.9956 40.2387 16.0044 40.2387 14.5702 39.1419L1.5702 29.2007C0.580524 28.4439 0 27.2692 0 26.0233V13.9767Z" opacity=".95"/></mask><g mask="url(#mask0)"><g filter="url(#filter0_ii)"><path fill="url(#paint1_radial)" fill-opacity=".9" d="M0 13.9767C0 12.7308 0.580524 11.5561 1.5702 10.7993L14.5702 0.858083C16.0044 -0.238676 17.9956 -0.238675 19.4298 0.858083L32.4298 10.7993C33.4195 11.5561 34 12.7308 34 13.9767V26.0233C34 27.2692 33.4195 28.4439 32.4298 29.2007L19.4298 39.1419C17.9956 40.2387 16.0044 40.2387 14.5702 39.1419L1.5702 29.2007C0.580524 28.4439 0 27.2692 0 26.0233V13.9767Z"/></g><g filter="url(#filter1_iif)"><path fill="url(#paint2_radial)" fill-opacity=".9" d="M34 27.0117V12.9883C34 12.3654 33.7097 11.778 33.2149 11.3996L17 -1V41L33.2149 28.6004C33.7097 28.222 34 27.6346 34 27.0117Z"/></g><g filter="url(#filter2_iif)"><path fill="url(#paint3_radial)" fill-opacity=".9" d="M17 -1L0 12L14.5702 23.1419C16.0044 24.2387 17.9956 24.2387 19.4298 23.1419L34 12L17 -1Z"/></g></g><defs><filter id="filter0_ii" width="37" height="41.929" x="-1" y=".036" color-interpolation-filters="sRGB" filterUnits="userSpaceOnUse"><feFlood flood-opacity="0" result="BackgroundImageFix"/><feBlend in="SourceGraphic" in2="BackgroundImageFix" mode="normal" result="shape"/><feColorMatrix in="SourceAlpha" result="hardAlpha" type="matrix" values="0 0 0 0 0 0 0 0 0 0 0 0 0 0 0 0 0 0 127 0"/><feOffset dx="2" dy="2"/><feGaussianBlur stdDeviation="5"/><feComposite in2="hardAlpha" k2="-1" k3="1" operator="arithmetic"/><feColorMatrix type="matrix" values="0 0 0 0 0.362929 0 0 0 0 0.455371 0 0 0 0 0.554189 0 0 0 0.6 0"/><feBlend in2="shape" mode="normal" result="effect1_innerShadow"/><feColorMatrix in="SourceAlpha" result="hardAlpha" type="matrix" values="0 0 0 0 0 0 0 0 0 0 0 0 0 0 0 0 0 0 127 0"/><feOffset dx="-1"/><feGaussianBlur stdDeviation=".5"/><feComposite in2="hardAlpha" k2="-1" k3="1" operator="arithmetic"/><feColorMatrix type="matrix" values="0 0 0 0 1 0 0 0 0 1 0 0 0 0 1 0 0 0 0.2 0"/><feBlend in2="effect1_innerShadow" mode="normal" result="effect2_innerShadow"/></filter><filter id="filter1_iif" width="21" height="46" x="15" y="-3" color-interpolation-filters="sRGB" filterUnits="userSpaceOnUse"><feFlood flood-opacity="0" result="BackgroundImageFix"/><feBlend in="SourceGraphic" in2="BackgroundImageFix" mode="normal" result="shape"/><feColorMatrix in="SourceAlpha" result="hardAlpha" type="matrix" values="0 0 0 0 0 0 0 0 0 0 0 0 0 0 0 0 0 0 127 0"/><feOffset dx="2" dy="2"/><feGaussianBlur stdDeviation="8"/><feComposite in2="hardAlpha" k2="-1" k3="1" operator="arithmetic"/><feColorMatrix type="matrix" values="0 0 0 0 0.362929 0 0 0 0 0.455371 0 0 0 0 0.554189 0 0 0 0.6 0"/><feBlend in2="shape" mode="normal" result="effect1_innerShadow"/><feColorMatrix in="SourceAlpha" result="hardAlpha" type="matrix" values="0 0 0 0 0 0 0 0 0 0 0 0 0 0 0 0 0 0 127 0"/><feOffset dx="-1" dy="1"/><feGaussianBlur stdDeviation=".5"/><feComposite in2="hardAlpha" k2="-1" k3="1" operator="arithmetic"/><feColorMatrix type="matrix" values="0 0 0 0 1 0 0 0 0 1 0 0 0 0 1 0 0 0 0.2 0"/><feBlend in2="effect1_innerShadow" mode="normal" result="effect2_innerShadow"/><feGaussianBlur result="effect3_foregroundBlur" stdDeviation="1"/></filter><filter id="filter2_iif" width="38" height="27.965" x="-2" y="-2" color-interpolation-filters="sRGB" filterUnits="userSpaceOnUse"><feFlood flood-opacity="0" result="BackgroundImageFix"/><feBlend in="SourceGraphic" in2="BackgroundImageFix" mode="normal" result="shape"/><feColorMatrix in="SourceAlpha" result="hardAlpha" type="matrix" values="0 0 0 0 0 0 0 0 0 0 0 0 0 0 0 0 0 0 127 0"/><feOffset dx="2" dy="2"/><feGaussianBlur stdDeviation="8"/><feComposite in2="hardAlpha" k2="-1" k3="1" operator="arithmetic"/><feColorMatrix type="matrix" values="0 0 0 0 0.362929 0 0 0 0 0.455371 0 0 0 0 0.554189 0 0 0 0.6 0"/><feBlend in2="shape" mode="normal" result="effect1_innerShadow"/><feColorMatrix in="SourceAlpha" result="hardAlpha" type="matrix" values="0 0 0 0 0 0 0 0 0 0 0 0 0 0 0 0 0 0 127 0"/><feOffset dx="-2"/><feGaussianBlur stdDeviation="1"/><feComposite in2="hardAlpha" k2="-1" k3="1" operator="arithmetic"/><feColorMatrix type="matrix" values="0 0 0 0 1 0 0 0 0 1 0 0 0 0 1 0 0 0 0.2 0"/><feBlend in2="effect1_innerShadow" mode="normal" result="effect2_innerShadow"/><feGaussianBlur result="effect3_foregroundBlur" stdDeviation=".5"/></filter><radialGradient id="paint0_radial" cx="0" cy="0" r="1" gradientTransform="translate(25.3048 24.3353) rotate(-113.885) scale(82.2113 2670.94)" gradientUnits="userSpaceOnUse"><stop/><stop offset="0" stop-color="#231600"/><stop offset="1" stop-color="#705C5E"/></radialGradient><radialGradient id="paint1_radial" cx="0" cy="0" r="1" gradientTransform="translate(25.3048 24.3353) rotate(-113.885) scale(82.2113 2670.94)" gradientUnits="userSpaceOnUse"><stop/><stop offset="0" stop-color="#231600"/><stop offset="1" stop-color="#705C5E"/></radialGradient><radialGradient id="paint2_radial" cx="0" cy="0" r="1" gradientTransform="translate(37.2501 16.8307) rotate(-115.254) scale(83.8533 1990.08)" gradientUnits="userSpaceOnUse"><stop/><stop offset="0" stop-color="#231600"/><stop offset="1" stop-color="#705C5E"/></radialGradient><radialGradient id="paint3_radial" cx="0" cy="0" r="1" gradientTransform="translate(30.4998 17.9502) rotate(-157.423) scale(77.4885 1689.58)" gradientUnits="userSpaceOnUse"><stop/><stop offset="0" stop-color="#231600"/><stop offset="1" stop-color="#705C5E"/></radialGradient></defs></svg>