<svg xmlns="http://www.w3.org/2000/svg" width="34" height="34" fill="none" viewBox="0 0 34 34"><mask id="mask0" width="34" height="32" x="0" y="1" mask-type="alpha" maskUnits="userSpaceOnUse"><path fill="#151311" d="M0 14.9767C0 13.7308 0.580524 12.5561 1.5702 11.7993L14.5702 1.85808C16.0044 0.761324 17.9956 0.761325 19.4298 1.85808L32.4298 11.7993C33.4195 12.5561 34 13.7308 34 14.9767V19.0233C34 20.2692 33.4195 21.4439 32.4298 22.2007L19.4298 32.1419C17.9956 33.2387 16.0044 33.2387 14.5702 32.1419L1.5702 22.2007C0.580524 21.4439 0 20.2692 0 19.0233V14.9767Z"/></mask><g mask="url(#mask0)"><g filter="url(#filter0_ii)"><path fill="url(#paint0_radial)" fill-opacity=".65" d="M0 13.9883C0 13.3654 0.290262 12.778 0.7851 12.3996L15.7851 0.929041C16.5022 0.380661 17.4978 0.380662 18.2149 0.929041L33.2149 12.3996C33.7097 12.778 34 13.3654 34 13.9883V20.0117C34 20.6346 33.7097 21.222 33.2149 21.6004L18.2149 33.071C17.4978 33.6193 16.5022 33.6193 15.7851 33.071L0.785101 21.6004C0.290263 21.222 0 20.6346 0 20.0117V13.9883Z"/></g><g filter="url(#filter1_iif)"><path fill="url(#paint1_radial)" fill-opacity=".8" d="M34 20.0117V13L17 26V34L33.2149 21.6004C33.7097 21.222 34 20.6346 34 20.0117Z"/></g><g filter="url(#filter2_if)"><path fill="url(#paint2_radial)" fill-opacity=".7" d="M17 0L0 13L14.5702 24.1419C16.0044 25.2387 17.9956 25.2387 19.4298 24.1419L34 13L17 0Z"/></g></g><defs><filter id="filter0_ii" width="36" height="33.965" x="-1" y=".518" color-interpolation-filters="sRGB" filterUnits="userSpaceOnUse"><feFlood flood-opacity="0" result="BackgroundImageFix"/><feBlend in="SourceGraphic" in2="BackgroundImageFix" mode="normal" result="shape"/><feColorMatrix in="SourceAlpha" result="hardAlpha" type="matrix" values="0 0 0 0 0 0 0 0 0 0 0 0 0 0 0 0 0 0 127 0"/><feOffset dx="1" dy="1"/><feGaussianBlur stdDeviation="8"/><feComposite in2="hardAlpha" k2="-1" k3="1" operator="arithmetic"/><feColorMatrix type="matrix" values="0 0 0 0 0.440542 0 0 0 0 0.400529 0 0 0 0 0.367792 0 0 0 0.2 0"/><feBlend in2="shape" mode="normal" result="effect1_innerShadow"/><feColorMatrix in="SourceAlpha" result="hardAlpha" type="matrix" values="0 0 0 0 0 0 0 0 0 0 0 0 0 0 0 0 0 0 127 0"/><feOffset dx="-1"/><feGaussianBlur stdDeviation="1"/><feComposite in2="hardAlpha" k2="-1" k3="1" operator="arithmetic"/><feColorMatrix type="matrix" values="0 0 0 0 1 0 0 0 0 1 0 0 0 0 1 0 0 0 0.2 0"/><feBlend in2="effect1_innerShadow" mode="normal" result="effect2_innerShadow"/></filter><filter id="filter1_iif" width="21" height="25" x="15" y="11" color-interpolation-filters="sRGB" filterUnits="userSpaceOnUse"><feFlood flood-opacity="0" result="BackgroundImageFix"/><feBlend in="SourceGraphic" in2="BackgroundImageFix" mode="normal" result="shape"/><feColorMatrix in="SourceAlpha" result="hardAlpha" type="matrix" values="0 0 0 0 0 0 0 0 0 0 0 0 0 0 0 0 0 0 127 0"/><feOffset dx="2" dy="2"/><feGaussianBlur stdDeviation="8"/><feComposite in2="hardAlpha" k2="-1" k3="1" operator="arithmetic"/><feColorMatrix type="matrix" values="0 0 0 0 0.440542 0 0 0 0 0.400529 0 0 0 0 0.367792 0 0 0 0.2 0"/><feBlend in2="shape" mode="normal" result="effect1_innerShadow"/><feColorMatrix in="SourceAlpha" result="hardAlpha" type="matrix" values="0 0 0 0 0 0 0 0 0 0 0 0 0 0 0 0 0 0 127 0"/><feOffset dx="-1" dy="1"/><feGaussianBlur stdDeviation=".5"/><feComposite in2="hardAlpha" k2="-1" k3="1" operator="arithmetic"/><feColorMatrix type="matrix" values="0 0 0 0 1 0 0 0 0 1 0 0 0 0 1 0 0 0 0.2 0"/><feBlend in2="effect1_innerShadow" mode="normal" result="effect2_innerShadow"/><feGaussianBlur result="effect3_foregroundBlur" stdDeviation="1"/></filter><filter id="filter2_if" width="37" height="26.965" x="-2" y="-1" color-interpolation-filters="sRGB" filterUnits="userSpaceOnUse"><feFlood flood-opacity="0" result="BackgroundImageFix"/><feBlend in="SourceGraphic" in2="BackgroundImageFix" mode="normal" result="shape"/><feColorMatrix in="SourceAlpha" result="hardAlpha" type="matrix" values="0 0 0 0 0 0 0 0 0 0 0 0 0 0 0 0 0 0 127 0"/><feOffset dx="-2"/><feGaussianBlur stdDeviation="1"/><feComposite in2="hardAlpha" k2="-1" k3="1" operator="arithmetic"/><feColorMatrix type="matrix" values="0 0 0 0 0.9272 0 0 0 0 0.91928 0 0 0 0 0.9128 0 0 0 0.15 0"/><feBlend in2="shape" mode="normal" result="effect1_innerShadow"/><feGaussianBlur result="effect2_foregroundBlur" stdDeviation=".5"/></filter><radialGradient id="paint0_radial" cx="0" cy="0" r="1" gradientTransform="translate(30.2818 26.6165) rotate(-156.928) scale(77.2877 1713.92)" gradientUnits="userSpaceOnUse"><stop stop-color="#131110"/><stop offset="1"/></radialGradient><radialGradient id="paint1_radial" cx="0" cy="0" r="1" gradientTransform="translate(23.0802 22.3714) rotate(-101.873) scale(99.4275 2181.5)" gradientUnits="userSpaceOnUse"><stop offset="0" stop-color="#3A3530"/><stop offset="1" stop-color="#49423D"/></radialGradient><radialGradient id="paint2_radial" cx="0" cy="0" r="1" gradientTransform="translate(30.4998 18.9502) rotate(-163.167) scale(41.2679 899.814)" gradientUnits="userSpaceOnUse"><stop stop-color="#3E3934"/><stop offset="1" stop-color="#221F1C"/></radialGradient></defs></svg>