<svg xmlns="http://www.w3.org/2000/svg" xmlns:xlink="http://www.w3.org/1999/xlink" width="34" height="34" fill="none" viewBox="0 0 34 34"><filter id="a" width="36" height="33.965" x="-1" y=".518" color-interpolation-filters="sRGB" filterUnits="userSpaceOnUse"><feFlood flood-opacity="0" result="BackgroundImageFix"/><feBlend in="SourceGraphic" in2="BackgroundImageFix" mode="normal" result="shape"/><feColorMatrix in="SourceAlpha" result="hardAlpha" type="matrix" values="0 0 0 0 0 0 0 0 0 0 0 0 0 0 0 0 0 0 127 0"/><feOffset dx="1" dy="1"/><feGaussianBlur stdDeviation="8"/><feComposite in2="hardAlpha" k2="-1" k3="1" operator="arithmetic"/><feColorMatrix type="matrix" values="0 0 0 0 0.414167 0 0 0 0 0.414167 0 0 0 0 0.414167 0 0 0 0.2 0"/><feBlend in2="shape" mode="normal" result="effect1_innerShadow"/><feColorMatrix in="SourceAlpha" result="hardAlpha" type="matrix" values="0 0 0 0 0 0 0 0 0 0 0 0 0 0 0 0 0 0 127 0"/><feOffset dx="-1"/><feGaussianBlur stdDeviation="1"/><feComposite in2="hardAlpha" k2="-1" k3="1" operator="arithmetic"/><feColorMatrix type="matrix" values="0 0 0 0 0.98 0 0 0 0 0.98 0 0 0 0 0.98 0 0 0 0.2 0"/><feBlend in2="effect1_innerShadow" mode="normal" result="effect2_innerShadow"/></filter><filter id="b" width="21" height="22.956" x="15" y="13.043" color-interpolation-filters="sRGB" filterUnits="userSpaceOnUse"><feFlood flood-opacity="0" result="BackgroundImageFix"/><feBlend in="SourceGraphic" in2="BackgroundImageFix" mode="normal" result="shape"/><feColorMatrix in="SourceAlpha" result="hardAlpha" type="matrix" values="0 0 0 0 0 0 0 0 0 0 0 0 0 0 0 0 0 0 127 0"/><feOffset dx="-1" dy="1"/><feGaussianBlur stdDeviation=".5"/><feComposite in2="hardAlpha" k2="-1" k3="1" operator="arithmetic"/><feColorMatrix type="matrix" values="0 0 0 0 0.98 0 0 0 0 0.98 0 0 0 0 0.98 0 0 0 0.5 0"/><feBlend in2="shape" mode="normal" result="effect1_innerShadow"/><feGaussianBlur result="effect2_foregroundBlur" stdDeviation="1"/></filter><filter id="c" width="37" height="27.965" x="-1" y="-1" color-interpolation-filters="sRGB" filterUnits="userSpaceOnUse"><feFlood flood-opacity="0" result="BackgroundImageFix"/><feBlend in="SourceGraphic" in2="BackgroundImageFix" mode="normal" result="shape"/><feColorMatrix in="SourceAlpha" result="hardAlpha" type="matrix" values="0 0 0 0 0 0 0 0 0 0 0 0 0 0 0 0 0 0 127 0"/><feOffset dx="2" dy="2"/><feGaussianBlur stdDeviation="10"/><feComposite in2="hardAlpha" k2="-1" k3="1" operator="arithmetic"/><feColorMatrix type="matrix" values="0 0 0 0 0.643333 0 0 0 0 0.643333 0 0 0 0 0.643333 0 0 0 0.2 0"/><feBlend in2="shape" mode="normal" result="effect1_innerShadow"/><feColorMatrix in="SourceAlpha" result="hardAlpha" type="matrix" values="0 0 0 0 0 0 0 0 0 0 0 0 0 0 0 0 0 0 127 0"/><feOffset dx="-2"/><feGaussianBlur stdDeviation=".5"/><feComposite in2="hardAlpha" k2="-1" k3="1" operator="arithmetic"/><feColorMatrix type="matrix" values="0 0 0 0 0.98 0 0 0 0 0.98 0 0 0 0 0.98 0 0 0 0.8 0"/><feBlend in2="effect1_innerShadow" mode="normal" result="effect2_innerShadow"/><feGaussianBlur result="effect3_foregroundBlur" stdDeviation=".5"/></filter><radialGradient id="d" cx="0" cy="0" r="1" gradientTransform="matrix(-48.78191297 -16.61621909 368.48049461 -1081.78541194 30.2818 26.6165)" gradientUnits="userSpaceOnUse"><stop offset="0" stop-color="#fafafa"/><stop offset="1" stop-color="#fafafa"/></radialGradient><radialGradient id="e" cx="0" cy="0" r="1" gradientTransform="matrix(-30.50005465 -3.49984944 5.6361459 -49.1171866 31.5 21.5)" gradientUnits="userSpaceOnUse"><stop offset="0" stop-color="#eaeaea"/><stop offset="0" stop-color="#e9e9e9"/><stop offset="1" stop-color="#e4e4e4"/></radialGradient><radialGradient id="f" cx="0" cy="0" r="1" gradientTransform="matrix(-31.99999033 -7.99985311 4.66288642 -18.65188251 35.5 15)" gradientUnits="userSpaceOnUse"><stop offset="0" stop-color="#fafafa"/><stop offset="1" stop-color="#f8f8f8"/></radialGradient><mask id="g" width="34" height="32" x="0" y="1" maskUnits="userSpaceOnUse"><path fill="#2b1f00" d="m0 14.9767c0-1.2459.580524-2.4206 1.5702-3.1774l13-9.94122c1.4342-1.096756 3.4254-1.096755 4.8596 0l13 9.94122c.9897.7568 1.5702 1.9315 1.5702 3.1774v4.0466c0 1.2459-.5805 2.4206-1.5702 3.1774l-13 9.9412c-1.4342 1.0968-3.4254 1.0968-4.8596 0l-13-9.9412c-.989676-.7568-1.5702-1.9315-1.5702-3.1774z" opacity=".92"/></mask><g mask="url(#g)"><g filter="url(#a)"><path fill="url(#d)" fill-opacity=".8" d="m0 13.9883c0-.6229.290262-1.2103.7851-1.5887l15-11.470559c.7171-.54838 1.7127-.548379 2.4298 0l15 11.470559c.4948.3784.7851.9658.7851 1.5887v6.0234c0 .6229-.2903 1.2103-.7851 1.5887l-15 11.4706c-.7171.5483-1.7127.5483-2.4298 0l-14.999999-11.4706c-.494838-.3784-.785101-.9658-.785101-1.5887z"/></g><g filter="url(#b)"><path fill="url(#e)" fill-opacity=".8" d="m34 20.0117v-2.9645c0-1.6567-1.8989-2.5951-3.2149-1.5887l-13 9.9411c-.4948.3784-.7851.9658-.7851 1.5887v7.0117l16.2149-12.3996c.4948-.3784.7851-.9658.7851-1.5887z"/></g><g filter="url(#c)"><path fill="url(#f)" fill-opacity=".9" d="m17 0-17 13 14.5702 11.1419c1.4342 1.0968 3.4254 1.0968 4.8596 0l14.5702-11.1419z"/></g></g></svg>